<?xml version="1.0" encoding="utf-8"?>
<!-- Generator: Adobe Illustrator 19.2.1, SVG Export Plug-In . SVG Version: 6.00 Build 0)  -->
<svg version="1.1" id="Réteg_1" xmlns="http://www.w3.org/2000/svg" xmlns:xlink="http://www.w3.org/1999/xlink" x="0px" y="0px"
	 viewBox="0 0 24 24" style="enable-background:new 0 0 24 24;" xml:space="preserve">
<style type="text/css">
	.st0{fill:#FFFFFF;}
</style>
<g>
	<path class="st0" d="M19.1,7.7c0.1,0.1,0.1,0.2,0.1,0.2s0,0.2-0.1,0.2l-8.7,8.7c-0.1,0.1-0.2,0.1-0.2,0.1s-0.2,0-0.2-0.1l-4.9-4.9
		c-0.1-0.1-0.1-0.2-0.1-0.2c0-0.1,0-0.2,0.1-0.2l0.5-0.5c0.1-0.1,0.2-0.1,0.2-0.1c0.1,0,0.2,0,0.2,0.1l4.2,4.2l7.9-7.9
		C18.1,7.1,18.2,7,18.3,7s0.2,0,0.2,0.1L19.1,7.7z"/>
</g>
</svg>
