<svg width="28" height="28" viewBox="0 0 28 28" fill="none" xmlns="http://www.w3.org/2000/svg">
<path fill-rule="evenodd" clip-rule="evenodd" d="M12 6C12 7.10458 12.8955 8 14 8C15.1045 8 16 7.10458 16 6C16 4.89542 15.1045 4 14 4C12.8955 4 12 4.89542 12 6ZM12 14C12 15.1046 12.8955 16 14 16C15.1045 16 16 15.1046 16 14C16 12.8954 15.1045 12 14 12C12.8955 12 12 12.8954 12 14ZM14 24C12.8955 24 12 23.1046 12 22C12 20.8954 12.8955 20 14 20C15.1045 20 16 20.8954 16 22C16 23.1046 15.1045 24 14 24Z" fill="#A7A7A7"/>
<mask id="mask0" mask-type="alpha" maskUnits="userSpaceOnUse" x="12" y="4" width="4" height="20">
<path fill-rule="evenodd" clip-rule="evenodd" d="M12 6C12 7.10458 12.8955 8 14 8C15.1045 8 16 7.10458 16 6C16 4.89542 15.1045 4 14 4C12.8955 4 12 4.89542 12 6ZM12 14C12 15.1046 12.8955 16 14 16C15.1045 16 16 15.1046 16 14C16 12.8954 15.1045 12 14 12C12.8955 12 12 12.8954 12 14ZM14 24C12.8955 24 12 23.1046 12 22C12 20.8954 12.8955 20 14 20C15.1045 20 16 20.8954 16 22C16 23.1046 15.1045 24 14 24Z" fill="white"/>
</mask>
<g mask="url(#mask0)">
<rect width="28" height="28" fill="#A7A7A7"/>
</g>
</svg>
