<?xml version="1.0" encoding="utf-8"?>
<!-- Generator: Adobe Illustrator 19.2.1, SVG Export Plug-In . SVG Version: 6.00 Build 0)  -->
<svg version="1.1" id="Réteg_1" xmlns="http://www.w3.org/2000/svg" xmlns:xlink="http://www.w3.org/1999/xlink" x="0px" y="0px"
	 viewBox="0 0 635.2 635.2" style="enable-background:new 0 0 635.2 635.2;" xml:space="preserve">
<style type="text/css">
	.st0{fill-rule:evenodd;clip-rule:evenodd;fill:#4D5154;}
	.st1{fill-rule:evenodd;clip-rule:evenodd;fill:#CFCFCF;}
	.st2{fill:#CFCFCF;}
</style>
<g>
	<path class="st0" d="M317.6,16.6c166.3,0,301,134.8,301,301s-134.8,301-301,301s-301-134.8-301-301S151.3,16.6,317.6,16.6"/>
	<path class="st1" d="M530.2,269.1c-0.1-4.3-1.2-6.9-2.6-11c-1.7-5-2.8-5.8-4-9.9c7.2,3.9,24.1,18.1,30,24.2
		c4.6,4.8,24.8,21.1,30.3,24c-1.9-5.6-13.9-17.2-18.6-22.9c-3.3-4-6-7.4-9.1-11c-4.5-5.1-6.7-5.6-12.6-9.5l-49.2-37.5
		c-1.5-2.8-1-4.1-2.2-7.3c-1.6-4.3-2.5-3.5-4.2-5.7c-3.3-4.4-3.3-9.9-5.3-15.3c-3.3-8.5-7.2-3.9-16.3-6.5c-7.5-2.1-4.7-6.6-8.8-12.5
		c-4.6-6.6-11-6.4-16.1-14.5c-2.1-3.2-2-3.9-4.7-6.6c-1.7-1.7-23.3-19.5-24-19.9c-3.8,2.2-13.3,13.3-17.2,17.5
		c-7.6,8.1-31.2,27.7-41,31.1c-15.9,5.6-10.6-2.1-25.3,12.3l-35.9,35.2c-8.9,5.5-11.5-0.4-30.6,8.1c-5,2.2-22.4,11-26.4,11.3
		c-7.6,0.6-7.1-2-13.7,2.2c-12.8,8-3.2,7.4-30,7.4c-24.5,0-16.2-5.7-30.5,5.5c-4.2,3.3-6.4,3.8-10.7,7.1L47.7,343.3l66.8-22.2
		c11.1-4,58.4-21.5,66.9-22.1c2.1,7.1,4,3.9,2.2,12c-1.2,5.6-2.2,7.9-2.2,14c15.2-8.1,25.6-20.6,33.8-33c7.1-10.9,1.5-5.3,0.5-15.2
		l31-6.5c10.9-2.1,21.7-4.5,32.6-6.5l-1.9-15.6c49.9-3.4,16.3-11.1,73.7,14.4l5.1,2.2c2.6,0.8,1.5,1.5,3,0.3
		c3.6-6,0.3-20.4,5.5-28.2c4.4-6.7,14.4-13.9,7.6-25.2c14.9-7.9,22.7-13,30-29.4c7.1-15.8-5.9-19.1,5.1-32.4
		c2.9-3.5,3.6-6.1,8.9-7.2c4.9,5.8,3.1,8.8,5.6,21.6c1.4,7.3,4.2,15.6,4.2,22.7c5.8-3.4,8.2-18.5,8.2-24.7l12.3,12.3
		c3.6,3.8,9.5,10.4,13.8,12.4c10.3,4.9,7.8,1.3,13.6,11.3c3.5,6,5.9,10.6,9.2,16.1c3.1,5.1,5,9.9,8.6,15.2c3.6,5.3,8.4,9,12.6,13.4
		C508.8,247.9,525.6,266.6,530.2,269.1"/>
	<path class="st1" d="M452,210.5c2.2,7.6,15.1,19.4,16.1,26.2c1.7,11-3,7.5,6.2,14.5c4.7,3.5,8.8,6.6,13.1,10.4
		c8.6,7.5,42.3,38.5,47.7,41.4c-1.8-6.3-18.8-34.8-24-39.4l-12.2-11.1C493.6,248,458.1,213.8,452,210.5"/>
	<path class="st1" d="M355.8,303c4.4-2.4,11.2-10.5,14.7-14.3l7.5-7c3.7-2.4,6.6-3.1,10.4-4.7c0-5.3-0.4-11.7,0.1-16.9
		c0.5-5.1,2.7-10.7,3.2-15.7c-4.4,2.3-9.8,6.7-12.3,11c-4.9,8.4,1.3,9.5-9.5,14.5c-10.1,4.6-7.5,3.4-9.8,14.3
		C358.6,290.4,356.4,297.1,355.8,303"/>
	<path class="st1" d="M253.1,287.3c12.6-2.4,20.1-8.4,31.1-10.3c18.6-3.2,21,3.5,37.3,3.8c-21-14.6-18.6-16.1-36-13.1
		c-7.8,1.3-6.3,2.1-16.7,8.8C264.1,279.6,255.9,283.9,253.1,287.3"/>
	<path class="st1" d="M585.6,297.8l-1.6-1.3L585.6,297.8z"/>
	<polygon class="st2" points="55.8,407.9 55.8,354.2 110.7,354.2 110.7,363.4 68.3,363.4 68.3,375.3 93,375.3 93,384.5 68.3,384.5 
		68.3,397.8 111.2,397.8 111.2,407.9 	"/>
	<polygon class="st2" points="152.4,407.9 121.4,354.2 135.7,354.2 157.4,393 178.1,354.2 190.6,354.2 161.1,407.9 	"/>
	<polygon class="st2" points="205.2,407.9 205.2,354.2 260.1,354.2 260.1,363.4 217.6,363.4 217.6,375.3 242.4,375.3 242.4,384.5 
		217.6,384.5 217.6,397.8 260.6,397.8 260.6,407.9 	"/>
	<path class="st2" d="M283.7,407.9v-53.7h45.9c4.3,0,7.4,0.8,9.3,2.5c1.9,1.6,2.9,4.3,2.9,7.9v12.6c0,3.6-1,6.3-2.9,7.9
		c-1.9,1.6-5,2.5-9.3,2.5h-7l24.8,20.3h-17.9l-21.6-20.3h-11.8v20.3H283.7z M324,363.5h-28.1v15H324c2.2,0,3.6-0.3,4.4-0.9
		c0.8-0.6,1.2-1.8,1.2-3.3v-6.5c0-1.6-0.4-2.7-1.2-3.3C327.6,363.8,326.2,363.5,324,363.5z"/>
	<polygon class="st2" points="367,407.9 367,354.2 422,354.2 422,363.4 379.5,363.4 379.5,375.3 404.3,375.3 404.3,384.5 
		379.5,384.5 379.5,397.8 422.5,397.8 422.5,407.9 	"/>
	<path class="st2" d="M492,363.6h-35.2v11.5h33.5c5.3,0,8.8,0.9,10.7,2.7c1.9,1.8,2.8,5.1,2.8,10v7.4c0,4.9-0.9,8.2-2.8,10
		c-1.9,1.8-5.4,2.7-10.7,2.7h-33.2c-5.3,0-8.8-0.9-10.6-2.7c-1.9-1.8-2.8-5.1-2.8-10v-1.5l11-2.3v6.3h38v-12.3h-33.5
		c-5.2,0-8.7-0.9-10.6-2.7c-1.8-1.8-2.7-5.1-2.7-10v-5.9c0-4.9,0.9-8.2,2.7-10c1.8-1.8,5.4-2.7,10.6-2.7h30.5c5,0,8.5,0.9,10.4,2.6
		c1.9,1.7,2.9,4.8,2.9,9.2v1.1l-11,2.6V363.6z"/>
	<polygon class="st2" points="554.6,363.8 554.6,407.9 542.2,407.9 542.2,363.8 517.5,363.8 517.5,354.2 579.4,354.2 579.4,363.8 	
		"/>
</g>
</svg>
