<?xml version="1.0" encoding="utf-8"?>
<!-- Generator: Adobe Illustrator 19.2.1, SVG Export Plug-In . SVG Version: 6.00 Build 0)  -->
<svg version="1.1" id="Réteg_1" xmlns="http://www.w3.org/2000/svg" xmlns:xlink="http://www.w3.org/1999/xlink" x="0px" y="0px"
	 viewBox="0 0 400 186" style="enable-background:new 0 0 400 186;" xml:space="preserve">
<style type="text/css">
	.st0{fill-rule:evenodd;clip-rule:evenodd;fill:#E2E2E1;}
</style>
<path class="st0" d="M353.1,117.9c-0.1-3.1-0.9-4.9-1.8-7.8c-1.2-3.6-2-4.1-2.8-7c5.1,2.7,17.1,12.8,21.3,17.2
	c3.3,3.4,17.6,15,21.5,17c-1.3-4-9.8-12.2-13.2-16.3c-2.4-2.9-4.2-5.3-6.5-7.8c-3.2-3.6-4.8-4-8.9-6.7l-35-26.6
	c-1.1-2-0.7-2.9-1.6-5.2c-1.2-3-1.8-2.5-3-4.1c-2.4-3.1-2.3-7-3.8-10.8c-2.3-6-5.1-2.8-11.6-4.6c-5.4-1.5-3.3-4.7-6.2-8.9
	c-3.2-4.7-7.8-4.6-11.4-10.3c-1.5-2.3-1.4-2.8-3.4-4.7c-1.2-1.2-16.5-13.8-17.1-14.1c-2.7,1.6-9.5,9.5-12.2,12.4
	c-5.4,5.8-22.2,19.6-29.1,22.1c-11.3,4-7.5-1.5-18,8.8l-25.5,25c-6.3,3.9-8.2-0.3-21.7,5.8c-3.5,1.6-15.9,7.8-18.8,8
	c-5.4,0.5-5-1.4-9.7,1.5c-9.1,5.7-2.3,5.2-21.3,5.3c-17.4,0-11.5-4.1-21.7,3.9c-3,2.3-4.5,2.7-7.6,5.1l-73.8,55.7l47.5-15.7
	c7.9-2.8,41.5-15.3,47.5-15.7c1.5,5,2.8,2.8,1.6,8.6c-0.8,4-1.6,5.6-1.6,9.9c10.8-5.8,18.2-14.6,24-23.4c5.1-7.7,1.1-3.8,0.3-10.8
	l22-4.6c7.7-1.5,15.4-3.2,23.2-4.6l-1.4-11.1c35.4-2.4,11.6-7.9,52.4,10.2l3.6,1.6c1.8,0.6,1,1.1,2.1,0.2c2.6-4.3,0.2-14.5,3.9-20
	c3.1-4.7,10.2-9.9,5.4-17.9c10.6-5.6,16.1-9.3,21.3-20.9c5-11.2-4.2-13.6,3.6-23c2-2.5,2.6-4.3,6.3-5.1c3.5,4.1,2.2,6.3,4,15.3
	c1,5.2,3,11.1,3,16.1c4.1-2.4,5.8-13.1,5.8-17.6l8.8,8.7c2.6,2.7,6.8,7.4,9.8,8.8c7.3,3.5,5.5,0.9,9.7,8c2.5,4.2,4.2,7.5,6.6,11.4
	c2.2,3.6,3.6,7.1,6.1,10.8c2.6,3.8,5.9,6.4,8.9,9.5C337.9,102.8,349.8,116.1,353.1,117.9"/>
<path class="st0" d="M297.6,76.3c1.6,5.4,10.7,13.8,11.4,18.6c1.2,7.8-2.2,5.3,4.4,10.3c3.3,2.5,6.3,4.7,9.3,7.4
	c6.1,5.3,30,27.3,33.9,29.4c-1.3-4.5-13.4-24.7-17.1-28l-8.7-7.9C327.1,102.9,301.9,78.6,297.6,76.3"/>
<path class="st0" d="M229.3,141.9c3.1-1.7,7.9-7.5,10.4-10.2l5.3-5c2.6-1.7,4.7-2.2,7.4-3.3c0-3.7-0.3-8.3,0.1-12
	c0.3-3.6,1.9-7.6,2.3-11.1c-3.1,1.7-6.9,4.7-8.7,7.8c-3.5,6,1,6.8-6.8,10.3c-7.1,3.3-5.3,2.4-7,10.2
	C231.3,133,229.7,137.8,229.3,141.9"/>
<path class="st0" d="M156.3,130.8c9-1.7,14.3-6,22.1-7.3c13.2-2.3,14.9,2.5,26.5,2.7c-14.9-10.4-13.2-11.5-25.6-9.3
	c-5.5,1-4.4,1.5-11.9,6.3C164.2,125.3,158.3,128.4,156.3,130.8"/>
</svg>
