<?xml version="1.0" encoding="utf-8"?>
<!-- Generator: Adobe Illustrator 19.2.1, SVG Export Plug-In . SVG Version: 6.00 Build 0)  -->
<svg version="1.1" id="Réteg_1" xmlns="http://www.w3.org/2000/svg" xmlns:xlink="http://www.w3.org/1999/xlink" x="0px" y="0px"
	 viewBox="0 0 24 24" style="enable-background:new 0 0 24 24;" xml:space="preserve">
<style type="text/css">
	.st0{fill:#FFFFFF;}
</style>
<g>
	<path class="st0" d="M7.4,16.9c-0.1-0.1-0.1-0.2-0.1-0.2c0-0.1,0-0.2,0.1-0.2l4.9-4.9c0.1-0.1,0.2-0.1,0.2-0.1s0.2,0,0.2,0.1
		l4.9,4.9c0.1,0.1,0.1,0.2,0.1,0.2c0,0.1,0,0.2-0.1,0.2l-0.5,0.5c-0.1,0.1-0.2,0.1-0.2,0.1s-0.2,0-0.2-0.1l-4.2-4.2l-4.2,4.2
		c-0.1,0.1-0.2,0.1-0.2,0.1s-0.2,0-0.2-0.1L7.4,16.9z"/>
	<path class="st0" d="M17.7,7.9c0.1,0.1,0.1,0.2,0.1,0.2c0,0.1,0,0.2-0.1,0.2l-4.9,4.9c-0.1,0.1-0.2,0.1-0.2,0.1s-0.2,0-0.2-0.1
		L7.4,8.4C7.3,8.3,7.3,8.3,7.3,8.2c0-0.1,0-0.2,0.1-0.2l0.5-0.5C8,7.3,8.1,7.3,8.2,7.3c0.1,0,0.2,0,0.2,0.1l4.2,4.2l4.2-4.2
		c0.1-0.1,0.2-0.1,0.2-0.1s0.2,0,0.2,0.1L17.7,7.9z"/>
</g>
</svg>
