<svg width="28" height="28" viewBox="0 0 28 28" fill="none" xmlns="http://www.w3.org/2000/svg">
<path fill-rule="evenodd" clip-rule="evenodd" d="M14.4854 13.071L7.41431 6L6 7.41422L13.071 14.4852L6 21.5563L7.41406 22.9706L14.4854 15.8994L21.5564 22.9706L22.9707 21.5563L15.8994 14.4852L22.9705 7.41422L21.5562 6L14.4854 13.071Z" fill="#A7A7A7"/>
<mask id="mask0" mask-type="alpha" maskUnits="userSpaceOnUse" x="6" y="6" width="17" height="17">
<path fill-rule="evenodd" clip-rule="evenodd" d="M14.4854 13.071L7.41431 6L6 7.41422L13.071 14.4852L6 21.5563L7.41406 22.9706L14.4854 15.8994L21.5564 22.9706L22.9707 21.5563L15.8994 14.4852L22.9705 7.41422L21.5562 6L14.4854 13.071Z" fill="white"/>
</mask>
<g mask="url(#mask0)">
<rect width="28" height="28" fill="#5FBBD7"/>
</g>
</svg>
