<svg width="28" height="28" viewBox="0 0 28 28" fill="none" xmlns="http://www.w3.org/2000/svg">
<path fill-rule="evenodd" clip-rule="evenodd" d="M22.9943 23.6073C22.9666 23.6534 22.8849 23.7605 22.7236 23.7605H5.58013C5.41886 23.7605 5.33715 23.6534 5.30948 23.6073C5.28181 23.5613 5.2257 23.4387 5.30155 23.2964L6.58939 20.8793H21.7144L23.0022 23.2964C23.0781 23.4387 23.0218 23.5612 22.9943 23.6073ZM14.1518 26.7375C13.1684 26.7375 12.3583 25.9832 12.2686 25.023H16.035C15.9452 25.9832 15.135 26.7375 14.1518 26.7375ZM6.81567 13.808C6.81567 9.76287 10.1067 6.47183 14.1518 6.47183C18.197 6.47183 21.488 9.76287 21.488 13.808V19.6167H6.81567V13.808ZM13.0282 2.38612C13.0282 1.76651 13.5322 1.26251 14.1518 1.26251C14.7713 1.26251 15.2753 1.76651 15.2753 2.38612V5.28281C14.9074 5.23457 14.5325 5.20936 14.1518 5.20936C13.771 5.20936 13.396 5.23457 13.0282 5.28281V2.38612ZM24.1164 22.7027L22.7505 20.1391V13.808C22.7505 9.89428 20.1221 6.58317 16.5379 5.54641V2.38613C16.5379 1.0704 15.4675 0 14.1518 0C12.8361 0 11.7657 1.0704 11.7657 2.38613V5.54646C8.18157 6.58328 5.55313 9.89434 5.55313 13.808V20.1391L4.18725 22.7027C3.9242 23.1964 3.93908 23.7775 4.22695 24.2571C4.51488 24.7367 5.02069 25.023 5.58009 25.023H11.0027C11.0951 26.6801 12.472 28 14.1518 28C15.8316 28 17.2085 26.6801 17.3009 25.023H22.7236C23.283 25.023 23.7887 24.7367 24.0767 24.2571C24.3646 23.7775 24.3794 23.1964 24.1164 22.7027Z" fill="#A7A7A7"/>
<mask id="mask0" mask-type="alpha" maskUnits="userSpaceOnUse" x="4" y="0" width="21" height="28">
<path fill-rule="evenodd" clip-rule="evenodd" d="M22.9943 23.6073C22.9666 23.6534 22.8849 23.7605 22.7236 23.7605H5.58013C5.41886 23.7605 5.33715 23.6534 5.30948 23.6073C5.28181 23.5613 5.2257 23.4387 5.30155 23.2964L6.58939 20.8793H21.7144L23.0022 23.2964C23.0781 23.4387 23.0218 23.5612 22.9943 23.6073ZM14.1518 26.7375C13.1684 26.7375 12.3583 25.9832 12.2686 25.023H16.035C15.9452 25.9832 15.135 26.7375 14.1518 26.7375ZM6.81567 13.808C6.81567 9.76287 10.1067 6.47183 14.1518 6.47183C18.197 6.47183 21.488 9.76287 21.488 13.808V19.6167H6.81567V13.808ZM13.0282 2.38612C13.0282 1.76651 13.5322 1.26251 14.1518 1.26251C14.7713 1.26251 15.2753 1.76651 15.2753 2.38612V5.28281C14.9074 5.23457 14.5325 5.20936 14.1518 5.20936C13.771 5.20936 13.396 5.23457 13.0282 5.28281V2.38612ZM24.1164 22.7027L22.7505 20.1391V13.808C22.7505 9.89428 20.1221 6.58317 16.5379 5.54641V2.38613C16.5379 1.0704 15.4675 0 14.1518 0C12.8361 0 11.7657 1.0704 11.7657 2.38613V5.54646C8.18157 6.58328 5.55313 9.89434 5.55313 13.808V20.1391L4.18725 22.7027C3.9242 23.1964 3.93908 23.7775 4.22695 24.2571C4.51488 24.7367 5.02069 25.023 5.58009 25.023H11.0027C11.0951 26.6801 12.472 28 14.1518 28C15.8316 28 17.2085 26.6801 17.3009 25.023H22.7236C23.283 25.023 23.7887 24.7367 24.0767 24.2571C24.3646 23.7775 24.3794 23.1964 24.1164 22.7027Z" fill="white"/>
</mask>
<g mask="url(#mask0)">
<rect width="28" height="28" fill="#A7A7A7"/>
</g>
</svg>
