<svg width="150" height="150" viewBox="0 0 150 150" fill="none" xmlns="http://www.w3.org/2000/svg">
<path fill-rule="evenodd" clip-rule="evenodd" d="M100.283 42.5156C110.283 47.3555 125.258 53.6699 129.062 61.4863C132.867 69.3027 137.973 72.1973 133.518 80.834C129.062 89.4707 113.4 94.0039 113.4 105.537C113.4 117.07 106.113 121.99 95.7226 125.486C85.332 128.982 58.6894 121.033 51.2285 113.285C43.7676 105.537 26.8847 109.906 18.3594 101.377C9.83397 92.8477 11.1738 77.9141 23.3066 64.541C35.4394 51.168 34.209 61.2969 42.7187 51.9063C51.2285 42.5156 50.7012 34.5117 58.9082 34.5117C67.1152 34.5117 75.2324 31.1348 81.7793 34.5117C88.3262 37.8887 90.2832 37.6758 100.283 42.5156Z" fill="#5FBBD7" fill-opacity="0.498415"/>
<path fill-rule="evenodd" clip-rule="evenodd" d="M100.283 42.5156C110.283 47.3555 125.258 53.6699 129.062 61.4863C132.867 69.3027 137.973 72.1973 133.518 80.834C129.062 89.4707 113.4 94.0039 113.4 105.537C113.4 117.07 106.113 121.99 95.7226 125.486C85.332 128.982 58.6894 121.033 51.2285 113.285C43.7676 105.537 26.8847 109.906 18.3594 101.377C9.83397 92.8477 11.1738 77.9141 23.3066 64.541C35.4394 51.168 34.209 61.2969 42.7187 51.9063C51.2285 42.5156 50.7012 34.5117 58.9082 34.5117C67.1152 34.5117 75.2324 31.1348 81.7793 34.5117C88.3262 37.8887 90.2832 37.6758 100.283 42.5156Z" fill="url(#paint0_radial)"/>
<path fill-rule="evenodd" clip-rule="evenodd" d="M44.709 35.1113C44.709 35.1113 57.0254 23.0703 65.0312 23.0703C73.0371 23.0703 84.914 6.69136 102.934 14.8808C120.953 23.0703 119.359 41.2089 123.789 50.5781C128.219 59.9472 119.359 69.7968 123.789 81.0722C128.219 92.3476 144.742 111.611 128.646 119.768C112.551 127.924 109.611 140.002 81.6855 137.379C53.7598 134.756 54.8652 124.994 44.709 119.768C34.5527 114.541 26.2949 103.885 26.2949 89.5253C26.2949 75.1661 29.1426 68.3789 26.2949 59.4785C23.4472 50.5781 28.4453 44.5058 34.0762 39.8085C39.707 35.1113 44.709 35.1113 44.709 35.1113Z" fill="#D43F51" fill-opacity="0.213457"/>
<path fill-rule="evenodd" clip-rule="evenodd" d="M44.709 35.1113C44.709 35.1113 57.0254 23.0703 65.0312 23.0703C73.0371 23.0703 84.914 6.69136 102.934 14.8808C120.953 23.0703 119.359 41.2089 123.789 50.5781C128.219 59.9472 119.359 69.7968 123.789 81.0722C128.219 92.3476 144.742 111.611 128.646 119.768C112.551 127.924 109.611 140.002 81.6855 137.379C53.7598 134.756 54.8652 124.994 44.709 119.768C34.5527 114.541 26.2949 103.885 26.2949 89.5253C26.2949 75.1661 29.1426 68.3789 26.2949 59.4785C23.4472 50.5781 28.4453 44.5058 34.0762 39.8085C39.707 35.1113 44.709 35.1113 44.709 35.1113Z" fill="url(#paint1_radial)"/>
<path fill-rule="evenodd" clip-rule="evenodd" d="M20.042 73.0508C16.5215 64.9122 6.98141 44.1973 20.042 35.7403C33.1025 27.2833 49.5351 30.8497 61.2773 30.8497C73.0195 30.8497 87.831 25.046 97.2343 28.8126C106.638 32.5792 112.61 52.3721 115.99 56.9307C119.37 61.4893 120.803 72.6973 120.803 80.8292C120.803 88.961 129.338 95.1905 125.07 102.687C120.803 110.183 115.99 105.59 108.756 112.074C101.522 118.558 96.0898 118.835 86.3789 122.187C76.6679 125.538 74.0068 130.108 59.539 126.148C45.0713 122.187 50.4316 115.815 44.372 111.308C38.3125 106.801 32.7939 109.565 27.6845 102.687C22.5752 95.8077 28.9697 91.586 27.6845 85.1641C26.3994 78.7422 23.5625 81.1895 20.042 73.0508Z" fill="#365ACE" fill-opacity="0.539883"/>
<path fill-rule="evenodd" clip-rule="evenodd" d="M20.042 73.0508C16.5215 64.9122 6.98141 44.1973 20.042 35.7403C33.1025 27.2833 49.5351 30.8497 61.2773 30.8497C73.0195 30.8497 87.831 25.046 97.2343 28.8126C106.638 32.5792 112.61 52.3721 115.99 56.9307C119.37 61.4893 120.803 72.6973 120.803 80.8292C120.803 88.961 129.338 95.1905 125.07 102.687C120.803 110.183 115.99 105.59 108.756 112.074C101.522 118.558 96.0898 118.835 86.3789 122.187C76.6679 125.538 74.0068 130.108 59.539 126.148C45.0713 122.187 50.4316 115.815 44.372 111.308C38.3125 106.801 32.7939 109.565 27.6845 102.687C22.5752 95.8077 28.9697 91.586 27.6845 85.1641C26.3994 78.7422 23.5625 81.1895 20.042 73.0508Z" fill="url(#paint2_radial)"/>
<path fill-rule="evenodd" clip-rule="evenodd" d="M75 120C97.0914 120 115 102.091 115 80C115 57.9086 97.0914 40 75 40C52.9086 40 35 57.9086 35 80C35 102.091 52.9086 120 75 120Z" fill="white" stroke="#365ACE" stroke-width="10"/>
<defs>
<radialGradient id="paint0_radial" cx="0" cy="0" r="1" gradientUnits="userSpaceOnUse" gradientTransform="translate(72.5444 79.6727) rotate(90) scale(93.3237 122.343)">
<stop stop-color="white" stop-opacity="0.01"/>
<stop offset="1" stop-opacity="0.193784"/>
</radialGradient>
<radialGradient id="paint1_radial" cx="0" cy="0" r="1" gradientUnits="userSpaceOnUse" gradientTransform="translate(79.1275 75.1661) rotate(90) scale(125.157 110.074)">
<stop stop-color="white" stop-opacity="0.01"/>
<stop offset="1" stop-opacity="0.193784"/>
</radialGradient>
<radialGradient id="paint2_radial" cx="0" cy="0" r="1" gradientUnits="userSpaceOnUse" gradientTransform="translate(68.4039 77.612) rotate(90) scale(100.141 112.892)">
<stop stop-color="white" stop-opacity="0.01"/>
<stop offset="1" stop-opacity="0.193784"/>
</radialGradient>
</defs>
</svg>
