<?xml version="1.0" encoding="utf-8"?>
<!-- Generator: Adobe Illustrator 19.2.1, SVG Export Plug-In . SVG Version: 6.00 Build 0)  -->
<svg version="1.1" id="Réteg_1" xmlns="http://www.w3.org/2000/svg" xmlns:xlink="http://www.w3.org/1999/xlink" x="0px" y="0px"
	 viewBox="0 0 6.3 10.7" style="enable-background:new 0 0 6.3 10.7;" xml:space="preserve">
<style type="text/css">
	.st0{fill:#FFFFFF;}
</style>
<path class="st0" d="M0.8,0.2C0.9,0.1,1,0.1,1,0.1s0.2,0,0.2,0.1l4.9,4.9c0.2,0.1,0.2,0.2,0.2,0.3s0,0.2-0.1,0.2l-4.9,4.9
	c-0.1,0.1-0.2,0.1-0.2,0.1s-0.2,0-0.2-0.1L0.4,10C0.3,9.9,0.3,9.8,0.3,9.8c0-0.1,0-0.2,0.1-0.2l4.2-4.2L0.2,1.2
	c0-0.1-0.1-0.2-0.1-0.3s0-0.2,0.1-0.2L0.8,0.2z"/>
</svg>
