<svg width="11" height="8" viewBox="0 0 11 8" fill="none" xmlns="http://www.w3.org/2000/svg">
<path d="M0.317941 6.51172C0.247256 6.44103 0.211914 6.35975 0.211914 6.26786C0.211914 6.17597 0.247256 6.09468 0.317941 6.024L5.25879 1.08315C5.32947 1.01246 5.41076 0.97712 5.50265 0.97712C5.59454 0.97712 5.67583 1.01246 5.74651 1.08315L10.6874 6.024C10.758 6.09468 10.7934 6.17597 10.7934 6.26786C10.7934 6.35975 10.758 6.44103 10.6874 6.51172L10.1572 7.04185C10.0865 7.11254 10.0053 7.14788 9.91337 7.14788C9.82148 7.14788 9.74019 7.11254 9.6695 7.04185L5.50265 2.875L1.3358 7.04185C1.26511 7.11254 1.18383 7.14788 1.09194 7.14788C1.00005 7.14788 0.918759 7.11254 0.848075 7.04185L0.317941 6.51172Z" fill="black"/>
</svg>
