<svg width="28" height="28" viewBox="0 0 28 28" fill="none" xmlns="http://www.w3.org/2000/svg">
<path fill-rule="evenodd" clip-rule="evenodd" d="M18.855 2.55728C18.855 2.24966 19.1044 2 19.412 2C19.7198 2 19.9692 2.24966 19.9692 2.55728V4.18024C19.9692 4.4881 19.7198 4.73752 19.412 4.73752C19.1044 4.73752 18.855 4.4881 18.855 4.18024V2.55728ZM24.646 13.4299C24.9922 13.1762 25.4187 13.0261 25.88 13.0261C27.0338 13.0261 27.9728 13.9648 27.9728 15.1188C27.9728 16.2729 27.0341 17.2119 25.88 17.2119C24.726 17.2119 23.787 16.2732 23.787 15.1191C23.787 14.8297 23.8462 14.5538 23.9529 14.3028L21.4506 12.3009C21.043 12.6709 20.5332 12.9292 19.9692 13.0298V14.2551C19.9692 14.5627 19.7197 14.812 19.4119 14.812C19.1044 14.812 18.8546 14.5627 18.8546 14.2551V13.0186C18.0642 12.8601 17.3859 12.3888 16.954 11.7394L12.2826 13.8347C12.2946 13.9254 12.3015 14.0176 12.3015 14.1115C12.3015 15.2285 11.422 16.1435 10.3193 16.2014L9.3313 20.387C9.93689 20.7541 10.3423 21.4196 10.3423 22.178C10.3423 23.3321 9.40356 24.2709 8.24951 24.2709C7.52795 24.2709 6.89062 23.9041 6.51428 23.3471L4.18433 24.0671C4.18481 24.0881 4.18591 24.1089 4.18591 24.13C4.18591 25.2841 3.24683 26.2231 2.09277 26.2231C0.938965 26.2231 0 25.2841 0 24.13C0 22.976 0.938965 22.0372 2.09302 22.0369C2.83203 22.0369 3.48242 22.4225 3.85474 23.0024L6.15991 22.2898C6.15869 22.2688 6.15784 22.2476 6.15735 22.2263L6.15723 22.2157L6.15674 22.1778C6.15674 21.024 7.0957 20.085 8.24951 20.085L8.25757 20.0853L9.2312 15.9613C8.56836 15.6097 8.1156 14.9127 8.1156 14.1115C8.1156 12.9575 9.05469 12.0185 10.2086 12.0185C10.8706 12.0185 11.4614 12.3279 11.8453 12.8092L16.521 10.7121C16.478 10.511 16.4551 10.3023 16.4551 10.0887C16.4551 8.64221 17.488 7.43295 18.855 7.15875V5.97137C18.855 5.66376 19.1044 5.41409 19.4119 5.41409C19.7197 5.41409 19.9692 5.66376 19.9692 5.97137V7.14755C21.3671 7.3967 22.4318 8.62009 22.4318 10.0887C22.4318 10.5632 22.3199 11.0119 22.1223 11.411L24.646 13.4299ZM1.1145 24.13C1.1145 24.6694 1.55334 25.1086 2.09302 25.1086C2.63245 25.1086 3.07153 24.6694 3.07153 24.13C3.07153 23.5903 2.63245 23.1515 2.09302 23.1515C1.55334 23.1515 1.1145 23.5903 1.1145 24.13ZM7.271 22.1777C7.271 22.7175 7.71008 23.1563 8.24951 23.1563C8.78918 23.1563 9.22803 22.7175 9.22803 22.1777C9.22803 21.6384 8.78918 21.1992 8.24951 21.1992C7.71008 21.1992 7.271 21.6384 7.271 22.1777ZM9.22986 14.1115C9.22986 14.6509 9.66895 15.09 10.2084 15.09C10.748 15.09 11.1869 14.6509 11.1869 14.1115C11.1869 13.5718 10.748 13.133 10.2084 13.133C9.66895 13.133 9.22986 13.5718 9.22986 14.1115ZM17.5693 10.0887C17.5693 11.1219 18.4102 11.9624 19.4434 11.9624C20.4768 11.9624 21.3174 11.1219 21.3174 10.0887C21.3174 9.05518 20.4768 8.21463 19.4434 8.21463C18.4102 8.21463 17.5693 9.05518 17.5693 10.0887ZM24.9015 15.1188C24.9015 15.6585 25.3403 16.0973 25.88 16.0973C26.4193 16.0973 26.8585 15.6585 26.8585 15.1188C26.8585 14.5794 26.4193 14.1403 25.88 14.1403C25.3403 14.1403 24.9015 14.5794 24.9015 15.1188ZM18.855 22.8741C18.855 22.5665 19.1044 22.3168 19.412 22.3168C19.7198 22.3168 19.9692 22.5662 19.9692 22.8741V24.4971C19.9692 24.8049 19.7198 25.0544 19.412 25.0544C19.1044 25.0544 18.855 24.8049 18.855 24.4971V22.8741ZM19.412 18.9026C19.1044 18.9026 18.855 19.1521 18.855 19.46V21.0829C18.855 21.3908 19.1044 21.6402 19.412 21.6402C19.7198 21.6402 19.9692 21.3908 19.9692 21.0829V19.46C19.9692 19.1521 19.7198 18.9026 19.412 18.9026ZM19.412 15.4886C19.1044 15.4886 18.855 15.7383 18.855 16.0458V17.6689C18.855 17.9767 19.1044 18.2261 19.412 18.2261C19.7198 18.2261 19.9692 17.9767 19.9692 17.6689V16.0458C19.9692 15.738 19.7198 15.4886 19.412 15.4886ZM18.6937 10.0887C18.6937 9.67517 19.0302 9.33902 19.4434 9.33902C19.8569 9.33902 20.193 9.67517 20.193 10.0887C20.193 10.5019 19.8569 10.8383 19.4434 10.8383C19.0302 10.8383 18.6937 10.5019 18.6937 10.0887Z" fill="#A7A7A7"/>
<mask id="mask0" mask-type="alpha" maskUnits="userSpaceOnUse" x="0" y="2" width="28" height="25">
<path fill-rule="evenodd" clip-rule="evenodd" d="M18.855 2.55728C18.855 2.24966 19.1044 2 19.412 2C19.7198 2 19.9692 2.24966 19.9692 2.55728V4.18024C19.9692 4.4881 19.7198 4.73752 19.412 4.73752C19.1044 4.73752 18.855 4.4881 18.855 4.18024V2.55728ZM24.646 13.4299C24.9922 13.1762 25.4187 13.0261 25.88 13.0261C27.0338 13.0261 27.9728 13.9648 27.9728 15.1188C27.9728 16.2729 27.0341 17.2119 25.88 17.2119C24.726 17.2119 23.787 16.2732 23.787 15.1191C23.787 14.8297 23.8462 14.5538 23.9529 14.3028L21.4506 12.3009C21.043 12.6709 20.5332 12.9292 19.9692 13.0298V14.2551C19.9692 14.5627 19.7197 14.812 19.4119 14.812C19.1044 14.812 18.8546 14.5627 18.8546 14.2551V13.0186C18.0642 12.8601 17.3859 12.3888 16.954 11.7394L12.2826 13.8347C12.2946 13.9254 12.3015 14.0176 12.3015 14.1115C12.3015 15.2285 11.422 16.1435 10.3193 16.2014L9.3313 20.387C9.93689 20.7541 10.3423 21.4196 10.3423 22.178C10.3423 23.3321 9.40356 24.2709 8.24951 24.2709C7.52795 24.2709 6.89062 23.9041 6.51428 23.3471L4.18433 24.0671C4.18481 24.0881 4.18591 24.1089 4.18591 24.13C4.18591 25.2841 3.24683 26.2231 2.09277 26.2231C0.938965 26.2231 0 25.2841 0 24.13C0 22.976 0.938965 22.0372 2.09302 22.0369C2.83203 22.0369 3.48242 22.4225 3.85474 23.0024L6.15991 22.2898C6.15869 22.2688 6.15784 22.2476 6.15735 22.2263L6.15723 22.2157L6.15674 22.1778C6.15674 21.024 7.0957 20.085 8.24951 20.085L8.25757 20.0853L9.2312 15.9613C8.56836 15.6097 8.1156 14.9127 8.1156 14.1115C8.1156 12.9575 9.05469 12.0185 10.2086 12.0185C10.8706 12.0185 11.4614 12.3279 11.8453 12.8092L16.521 10.7121C16.478 10.511 16.4551 10.3023 16.4551 10.0887C16.4551 8.64221 17.488 7.43295 18.855 7.15875V5.97137C18.855 5.66376 19.1044 5.41409 19.4119 5.41409C19.7197 5.41409 19.9692 5.66376 19.9692 5.97137V7.14755C21.3671 7.3967 22.4318 8.62009 22.4318 10.0887C22.4318 10.5632 22.3199 11.0119 22.1223 11.411L24.646 13.4299ZM1.1145 24.13C1.1145 24.6694 1.55334 25.1086 2.09302 25.1086C2.63245 25.1086 3.07153 24.6694 3.07153 24.13C3.07153 23.5903 2.63245 23.1515 2.09302 23.1515C1.55334 23.1515 1.1145 23.5903 1.1145 24.13ZM7.271 22.1777C7.271 22.7175 7.71008 23.1563 8.24951 23.1563C8.78918 23.1563 9.22803 22.7175 9.22803 22.1777C9.22803 21.6384 8.78918 21.1992 8.24951 21.1992C7.71008 21.1992 7.271 21.6384 7.271 22.1777ZM9.22986 14.1115C9.22986 14.6509 9.66895 15.09 10.2084 15.09C10.748 15.09 11.1869 14.6509 11.1869 14.1115C11.1869 13.5718 10.748 13.133 10.2084 13.133C9.66895 13.133 9.22986 13.5718 9.22986 14.1115ZM17.5693 10.0887C17.5693 11.1219 18.4102 11.9624 19.4434 11.9624C20.4768 11.9624 21.3174 11.1219 21.3174 10.0887C21.3174 9.05518 20.4768 8.21463 19.4434 8.21463C18.4102 8.21463 17.5693 9.05518 17.5693 10.0887ZM24.9015 15.1188C24.9015 15.6585 25.3403 16.0973 25.88 16.0973C26.4193 16.0973 26.8585 15.6585 26.8585 15.1188C26.8585 14.5794 26.4193 14.1403 25.88 14.1403C25.3403 14.1403 24.9015 14.5794 24.9015 15.1188ZM18.855 22.8741C18.855 22.5665 19.1044 22.3168 19.412 22.3168C19.7198 22.3168 19.9692 22.5662 19.9692 22.8741V24.4971C19.9692 24.8049 19.7198 25.0544 19.412 25.0544C19.1044 25.0544 18.855 24.8049 18.855 24.4971V22.8741ZM19.412 18.9026C19.1044 18.9026 18.855 19.1521 18.855 19.46V21.0829C18.855 21.3908 19.1044 21.6402 19.412 21.6402C19.7198 21.6402 19.9692 21.3908 19.9692 21.0829V19.46C19.9692 19.1521 19.7198 18.9026 19.412 18.9026ZM19.412 15.4886C19.1044 15.4886 18.855 15.7383 18.855 16.0458V17.6689C18.855 17.9767 19.1044 18.2261 19.412 18.2261C19.7198 18.2261 19.9692 17.9767 19.9692 17.6689V16.0458C19.9692 15.738 19.7198 15.4886 19.412 15.4886ZM18.6937 10.0887C18.6937 9.67517 19.0302 9.33902 19.4434 9.33902C19.8569 9.33902 20.193 9.67517 20.193 10.0887C20.193 10.5019 19.8569 10.8383 19.4434 10.8383C19.0302 10.8383 18.6937 10.5019 18.6937 10.0887Z" fill="white"/>
</mask>
<g mask="url(#mask0)">
<rect width="28" height="28" fill="#A7A7A7"/>
</g>
</svg>
