<svg width="28" height="28" viewBox="0 0 28 28" fill="none" xmlns="http://www.w3.org/2000/svg">
<path fill-rule="evenodd" clip-rule="evenodd" d="M27.4155 12.0512H26.6328V5.0565C26.6328 3.92243 25.7104 3 24.5766 3H2.69435C1.20871 3 0 4.20871 0 5.69435C0 5.70152 0.000546341 5.70849 0.000546341 5.71566C0.000546341 5.71914 0 5.72262 0 5.72631V20.878C0 22.6802 1.46618 24.1464 3.26842 24.1464H26.0758C26.3834 24.1464 26.6328 23.897 26.6328 23.5894V19.2422H27.4155C27.7231 19.2422 27.9725 18.9927 27.9725 18.6848V12.6084C27.9728 12.3006 27.7231 12.0512 27.4155 12.0512ZM2.69456 4.11456H24.5768C25.0962 4.11456 25.5187 4.53709 25.5187 5.05652V7.2744H2.69456C1.82356 7.2744 1.11475 6.56559 1.11475 5.69438C1.11475 4.82337 1.82356 4.11456 2.69456 4.11456ZM25.5187 23.0321H3.26863C2.08102 23.0321 1.11475 22.0656 1.11475 20.878V7.87512C1.55892 8.19767 2.10472 8.38896 2.69456 8.38896H25.5187V12.0512H22.3519C20.3693 12.0512 18.7565 13.664 18.7565 15.6466C18.7565 17.6292 20.3693 19.2422 22.3519 19.2422H25.5187V23.0321ZM26.8583 18.1276H22.3518C20.9836 18.1276 19.8706 17.0146 19.8706 15.6466C19.8706 14.2787 20.9838 13.1657 22.3518 13.1657H26.8583V18.1276ZM22.4913 14.0188C21.5939 14.0188 20.8638 14.7493 20.8638 15.6466C20.8638 16.5441 21.5939 17.2744 22.4913 17.2744C23.389 17.2744 24.1191 16.5443 24.1191 15.6466C24.1191 14.749 23.389 14.0188 22.4913 14.0188ZM22.4913 16.1599C22.2085 16.1599 21.978 15.9297 21.978 15.6466C21.978 15.3636 22.2082 15.1334 22.4913 15.1334C22.7743 15.1334 23.0048 15.3636 23.0048 15.6466C23.0048 15.9297 22.7743 16.1599 22.4913 16.1599Z" fill="#A7A7A7"/>
<mask id="mask0" mask-type="alpha" maskUnits="userSpaceOnUse" x="0" y="3" width="28" height="22">
<path fill-rule="evenodd" clip-rule="evenodd" d="M27.4155 12.0512H26.6328V5.0565C26.6328 3.92243 25.7104 3 24.5766 3H2.69435C1.20871 3 0 4.20871 0 5.69435C0 5.70152 0.000546341 5.70849 0.000546341 5.71566C0.000546341 5.71914 0 5.72262 0 5.72631V20.878C0 22.6802 1.46618 24.1464 3.26842 24.1464H26.0758C26.3834 24.1464 26.6328 23.897 26.6328 23.5894V19.2422H27.4155C27.7231 19.2422 27.9725 18.9927 27.9725 18.6848V12.6084C27.9728 12.3006 27.7231 12.0512 27.4155 12.0512ZM2.69456 4.11456H24.5768C25.0962 4.11456 25.5187 4.53709 25.5187 5.05652V7.2744H2.69456C1.82356 7.2744 1.11475 6.56559 1.11475 5.69438C1.11475 4.82337 1.82356 4.11456 2.69456 4.11456ZM25.5187 23.0321H3.26863C2.08102 23.0321 1.11475 22.0656 1.11475 20.878V7.87512C1.55892 8.19767 2.10472 8.38896 2.69456 8.38896H25.5187V12.0512H22.3519C20.3693 12.0512 18.7565 13.664 18.7565 15.6466C18.7565 17.6292 20.3693 19.2422 22.3519 19.2422H25.5187V23.0321ZM26.8583 18.1276H22.3518C20.9836 18.1276 19.8706 17.0146 19.8706 15.6466C19.8706 14.2787 20.9838 13.1657 22.3518 13.1657H26.8583V18.1276ZM22.4913 14.0188C21.5939 14.0188 20.8638 14.7493 20.8638 15.6466C20.8638 16.5441 21.5939 17.2744 22.4913 17.2744C23.389 17.2744 24.1191 16.5443 24.1191 15.6466C24.1191 14.749 23.389 14.0188 22.4913 14.0188ZM22.4913 16.1599C22.2085 16.1599 21.978 15.9297 21.978 15.6466C21.978 15.3636 22.2082 15.1334 22.4913 15.1334C22.7743 15.1334 23.0048 15.3636 23.0048 15.6466C23.0048 15.9297 22.7743 16.1599 22.4913 16.1599Z" fill="white"/>
</mask>
<g mask="url(#mask0)">
<rect width="28" height="28" fill="#A7A7A7"/>
</g>
</svg>
