<svg width="18" height="17" viewBox="0 0 18 17" fill="none" xmlns="http://www.w3.org/2000/svg">
<path fill-rule="evenodd" clip-rule="evenodd" d="M15.3268 4.29542H14.1679V0.363854C14.1679 0.176937 14.0132 0.0255127 13.8222 0.0255127H7.01417C6.82317 0.0255127 6.6684 0.176937 6.6684 0.363854V4.29542H4.38113C3.71347 4.29542 3.1703 4.82702 3.1703 5.48036V6.02556H2.18072C1.52336 6.02556 0.988786 6.54887 0.988786 7.19205V9.25029H0.984464C0.488955 9.25029 0.0859375 9.64486 0.0859375 10.1296V12.3895C0.0859375 12.8743 0.488955 13.2687 0.984464 13.2687H0.988616V15.3271C0.988616 15.9703 1.52336 16.4936 2.18072 16.4936H17.0947C17.2856 16.4936 17.4405 16.3422 17.4405 16.1553V6.36373C17.4405 5.22332 16.4923 4.29542 15.3268 4.29542ZM14.168 4.97211H15.3269C15.9918 4.97211 16.5518 5.42107 16.7065 6.02553H14.168V4.97211ZM7.35986 0.702209H13.4768V6.02557H11.7608V2.64597C11.7608 2.45922 11.6061 2.3078 11.4151 2.3078C11.2242 2.3078 11.0695 2.45922 11.0695 2.64597V6.02557H9.80487V2.64597C9.80487 2.45922 9.6501 2.3078 9.45914 2.3078C9.26831 2.3078 9.11353 2.45922 9.11353 2.64597V6.02557H7.36003V0.702209H7.35986ZM3.86182 5.48032C3.86199 5.20016 4.09485 4.97211 4.38135 4.97211H6.66861V6.02553H3.86182V5.48032ZM0.984403 12.5921C0.870217 12.5921 0.777344 12.5011 0.777344 12.3895V10.1296C0.777344 10.0178 0.870217 9.927 0.984403 9.927H2.73743C3.48835 9.927 4.09923 10.5248 4.09923 11.2596C4.09923 11.9943 3.48835 12.5921 2.73743 12.5921H0.984403ZM16.7491 15.8169H2.18081C1.90478 15.8169 1.68018 15.5972 1.68018 15.3271V13.2687H2.73776C3.86965 13.2687 4.79068 12.3674 4.79068 11.2595C4.79068 10.1517 3.86965 9.2503 2.73776 9.2503H1.68018V7.19206C1.68018 6.92188 1.90478 6.70209 2.18081 6.70209H16.7491V15.8169ZM2.76376 10.3692C2.26211 10.3692 1.854 10.7686 1.854 11.2595C1.854 11.7506 2.26211 12.15 2.76376 12.15C3.26558 12.15 3.67372 11.7506 3.67372 11.2595C3.67372 10.7686 3.26558 10.3692 2.76376 10.3692ZM2.76387 11.4733C2.64354 11.4733 2.54541 11.3774 2.54541 11.2595C2.54541 11.1416 2.64337 11.0457 2.76387 11.0457C2.88436 11.0457 2.98249 11.1416 2.98249 11.2595C2.98249 11.3774 2.88436 11.4733 2.76387 11.4733Z" fill="#A7A7A7"/>
<mask id="mask0" mask-type="alpha" maskUnits="userSpaceOnUse" x="0" y="0" width="18" height="17">
<path fill-rule="evenodd" clip-rule="evenodd" d="M15.3268 4.29542H14.1679V0.363854C14.1679 0.176937 14.0132 0.0255127 13.8222 0.0255127H7.01417C6.82317 0.0255127 6.6684 0.176937 6.6684 0.363854V4.29542H4.38113C3.71347 4.29542 3.1703 4.82702 3.1703 5.48036V6.02556H2.18072C1.52336 6.02556 0.988786 6.54887 0.988786 7.19205V9.25029H0.984464C0.488955 9.25029 0.0859375 9.64486 0.0859375 10.1296V12.3895C0.0859375 12.8743 0.488955 13.2687 0.984464 13.2687H0.988616V15.3271C0.988616 15.9703 1.52336 16.4936 2.18072 16.4936H17.0947C17.2856 16.4936 17.4405 16.3422 17.4405 16.1553V6.36373C17.4405 5.22332 16.4923 4.29542 15.3268 4.29542ZM14.168 4.97211H15.3269C15.9918 4.97211 16.5518 5.42107 16.7065 6.02553H14.168V4.97211ZM7.35986 0.702209H13.4768V6.02557H11.7608V2.64597C11.7608 2.45922 11.6061 2.3078 11.4151 2.3078C11.2242 2.3078 11.0695 2.45922 11.0695 2.64597V6.02557H9.80487V2.64597C9.80487 2.45922 9.6501 2.3078 9.45914 2.3078C9.26831 2.3078 9.11353 2.45922 9.11353 2.64597V6.02557H7.36003V0.702209H7.35986ZM3.86182 5.48032C3.86199 5.20016 4.09485 4.97211 4.38135 4.97211H6.66861V6.02553H3.86182V5.48032ZM0.984403 12.5921C0.870217 12.5921 0.777344 12.5011 0.777344 12.3895V10.1296C0.777344 10.0178 0.870217 9.927 0.984403 9.927H2.73743C3.48835 9.927 4.09923 10.5248 4.09923 11.2596C4.09923 11.9943 3.48835 12.5921 2.73743 12.5921H0.984403ZM16.7491 15.8169H2.18081C1.90478 15.8169 1.68018 15.5972 1.68018 15.3271V13.2687H2.73776C3.86965 13.2687 4.79068 12.3674 4.79068 11.2595C4.79068 10.1517 3.86965 9.2503 2.73776 9.2503H1.68018V7.19206C1.68018 6.92188 1.90478 6.70209 2.18081 6.70209H16.7491V15.8169ZM2.76376 10.3692C2.26211 10.3692 1.854 10.7686 1.854 11.2595C1.854 11.7506 2.26211 12.15 2.76376 12.15C3.26558 12.15 3.67372 11.7506 3.67372 11.2595C3.67372 10.7686 3.26558 10.3692 2.76376 10.3692ZM2.76387 11.4733C2.64354 11.4733 2.54541 11.3774 2.54541 11.2595C2.54541 11.1416 2.64337 11.0457 2.76387 11.0457C2.88436 11.0457 2.98249 11.1416 2.98249 11.2595C2.98249 11.3774 2.88436 11.4733 2.76387 11.4733Z" fill="white"/>
</mask>
<g mask="url(#mask0)">
<rect x="0.0859375" width="17.3714" height="17" fill="#5FBBD7"/>
</g>
</svg>
